<?xml version="1.0" encoding="iso-8859-1"?>
<!-- Generator: Adobe Illustrator 17.1.0, SVG Export Plug-In . SVG Version: 6.00 Build 0)  -->
<!DOCTYPE svg PUBLIC "-//W3C//DTD SVG 1.1//EN" "http://www.w3.org/Graphics/SVG/1.1/DTD/svg11.dtd">
<svg version="1.1" id="Capa_1" xmlns="http://www.w3.org/2000/svg" xmlns:xlink="http://www.w3.org/1999/xlink" x="0px" y="0px"
	 viewBox="0 0 210.667 210.667" style="enable-background:new 0 0 210.667 210.667;" xml:space="preserve">
<path d="M165.334,192.439h-120c-1.657,0-3-1.343-3-3V72.043l-24.395,8.036c-1.437,0.471-3.005-0.199-3.652-1.57l-14-29.677
	c-0.665-1.409-0.14-3.092,1.207-3.874l38.767-22.51c4.752-2.76,10.17-4.219,15.667-4.219h21.675c0.042-0.001,0.083-0.001,0.125,0
	h77.013c5.496,0,10.913,1.459,15.666,4.219l38.768,22.51c1.347,0.782,1.871,2.465,1.206,3.874l-14,29.677
	c-0.646,1.371-2.213,2.043-3.651,1.57l-24.395-8.036v117.396C168.334,191.095,166.991,192.439,165.334,192.439z M48.334,186.439h114
	V67.896c0-0.962,0.462-1.867,1.241-2.431c0.78-0.565,1.785-0.718,2.697-0.419l25.813,8.503l11.692-24.786l-36.385-21.127
	c-3.839-2.229-8.215-3.407-12.653-3.407h-20.039c-2.705,4.1-11.22,14.213-29.367,14.213c-18.148,0-26.663-10.113-29.369-14.213
	H55.927c-4.439,0-8.815,1.178-12.654,3.407L6.889,48.764L18.582,73.55l25.813-8.503c0.913-0.299,1.917-0.146,2.697,0.419
	c0.78,0.564,1.242,1.468,1.242,2.431V186.439z M83.655,24.23c3.569,3.631,10.322,8.213,21.679,8.213s18.109-4.582,21.678-8.213
	H83.655z"/>
<g>
</g>
<g>
</g>
<g>
</g>
<g>
</g>
<g>
</g>
<g>
</g>
<g>
</g>
<g>
</g>
<g>
</g>
<g>
</g>
<g>
</g>
<g>
</g>
<g>
</g>
<g>
</g>
<g>
</g>
</svg>
