<?xml version="1.0" encoding="iso-8859-1"?>
<!-- Generator: Adobe Illustrator 18.0.0, SVG Export Plug-In . SVG Version: 6.00 Build 0)  -->
<!DOCTYPE svg PUBLIC "-//W3C//DTD SVG 1.1//EN" "http://www.w3.org/Graphics/SVG/1.1/DTD/svg11.dtd">
<svg version="1.1" id="Capa_1" xmlns="http://www.w3.org/2000/svg" xmlns:xlink="http://www.w3.org/1999/xlink" x="0px" y="0px"
	 viewBox="0 0 480.293 480.293" style="enable-background:new 0 0 480.293 480.293;" xml:space="preserve">
<path d="M376.559,387.238c-19.016,12.408-33.598,17.887-58.669,17.887c-55.479,0-61.179-40.027-61.179-45.701V208.59
	c0-5.657,7.226-9.865,12.892-9.865h94.424c5.659,0,8.62-4.84,8.62-10.514v-0.226c0-5.683,0-61.452,0-61.452
	c0-5.681-2.961-10.614-8.62-10.614h-94.424c-5.666,0-12.892-4.317-12.892-9.991V10.545c0-5.658-2.025-10.545-7.699-10.545h-45.256
	c-5.658,0-11.145,4.691-12.181,10.257c0,0-8.925,44.001-22.999,64.996c-6.438,9.603-13.91,17.941-22.172,24.425
	c-13.342,10.498-34.953,14.628-34.953,14.628c-5.566,1.029-8.713,1.909-11.496,1.909c-5.854,0-8.869,4.638-8.869,10.318V188
	c0,5.674,4.707,10.725,10.366,10.725h34.648c5.659,0,10.304,4.418,10.304,10.076c0,0-0.663,179.007-0.663,184.603
	c0,0-1.2,86.89,136.12,86.89c68.075,0,98.064-15.158,98.064-15.158c5.041-2.557,9.281-8.301,9.281-14.964v-59.745
	C389.207,378.666,377.658,386.529,376.559,387.238z"/>
<g>
</g>
<g>
</g>
<g>
</g>
<g>
</g>
<g>
</g>
<g>
</g>
<g>
</g>
<g>
</g>
<g>
</g>
<g>
</g>
<g>
</g>
<g>
</g>
<g>
</g>
<g>
</g>
<g>
</g>
</svg>
