<?xml version="1.0" encoding="iso-8859-1"?>
<!-- Generator: Adobe Illustrator 16.0.0, SVG Export Plug-In . SVG Version: 6.00 Build 0)  -->
<!DOCTYPE svg PUBLIC "-//W3C//DTD SVG 1.1//EN" "http://www.w3.org/Graphics/SVG/1.1/DTD/svg11.dtd">
<svg version="1.1" id="Capa_1" xmlns="http://www.w3.org/2000/svg" xmlns:xlink="http://www.w3.org/1999/xlink" x="0px" y="0px"
	 width="612px" height="612px" viewBox="0 0 612 612" style="enable-background:new 0 0 612 612;" xml:space="preserve">
<g>
	<g id="communication_-_bubble_chat_talk_conversation_1_">
		<g>
			<path d="M306,0C137.012,0,0,119.875,0,267.75c0,84.494,44.867,159.771,114.75,208.807V612l156.672-78.336
				c11.36,1.147,22.874,1.836,34.578,1.836c168.988,0,306-119.875,306-267.75C612,119.875,474.988,0,306,0z M306,497.25
				c-17.519,0-34.616-1.53-51.217-4.284l12.967,4.322L153,554.625V459l14.191,4.743C90.002,423.466,38.25,350.905,38.25,267.75
				c0-126.761,119.875-229.5,267.75-229.5c147.875,0,267.75,102.739,267.75,229.5S453.875,497.25,306,497.25z"/>
		</g>
	</g>
</g>
<g>
</g>
<g>
</g>
<g>
</g>
<g>
</g>
<g>
</g>
<g>
</g>
<g>
</g>
<g>
</g>
<g>
</g>
<g>
</g>
<g>
</g>
<g>
</g>
<g>
</g>
<g>
</g>
<g>
</g>
</svg>
