<?xml version="1.0" encoding="iso-8859-1"?>
<!-- Generator: Adobe Illustrator 18.1.1, SVG Export Plug-In . SVG Version: 6.00 Build 0)  -->
<svg version="1.1" id="Capa_1" xmlns="http://www.w3.org/2000/svg" xmlns:xlink="http://www.w3.org/1999/xlink" x="0px" y="0px"
	 viewBox="0 0 76 76" style="enable-background:new 0 0 76 76;" xml:space="preserve">
<g id="_x37_7_Essential_Icons_69_">
	<path id="Up_Arrow" d="M55.9,45.4c-0.8,0.8-2,0.8-2.8,0L38.4,30.7L22.9,46.2c-0.8,0.8-2,0.8-2.8,0s-0.8-2,0-2.8L37,26.5
		c0.8-0.8,2.1-0.8,2.8,0l16.1,16.1C56.7,43.4,56.7,44.6,55.9,45.4z M76,38c0,21-17,38-38,38S0,59,0,38S17,0,38,0S76,17,76,38z
		 M72,38C72,19.2,56.7,4,38,4C19.2,4,4,19.2,4,38s15.2,34,34,34C56.7,72,72,56.8,72,38z"/>
</g>
<g>
</g>
<g>
</g>
<g>
</g>
<g>
</g>
<g>
</g>
<g>
</g>
<g>
</g>
<g>
</g>
<g>
</g>
<g>
</g>
<g>
</g>
<g>
</g>
<g>
</g>
<g>
</g>
<g>
</g>
</svg>
