<?xml version="1.0" encoding="UTF-8" ?>
<!DOCTYPE svg PUBLIC "-//W3C//DTD SVG 1.1//EN" "http://www.w3.org/Graphics/SVG/1.1/DTD/svg11.dtd">
<svg width="1354pt" height="739pt" viewBox="0 0 1354 739" version="1.1" xmlns="http://www.w3.org/2000/svg">
<path fill="#ffffff" d=" M 0.00 0.00 L 1354.00 0.00 L 1354.00 739.00 L 0.00 739.00 L 0.00 0.00 Z" />
<path fill="#000000" d=" M 201.45 93.40 C 203.39 92.40 205.59 92.23 207.71 92.61 C 207.72 96.33 205.28 99.30 202.60 101.60 C 192.39 110.78 182.33 120.19 173.15 130.42 C 189.72 128.29 206.34 126.49 222.99 125.07 C 228.13 124.26 233.41 124.71 238.50 123.54 C 241.98 120.35 245.20 116.87 248.56 113.55 C 251.34 110.87 253.43 107.22 257.13 105.71 C 260.24 106.15 264.38 107.64 265.18 111.08 C 265.36 115.83 261.33 119.05 258.56 122.38 C 272.37 122.48 286.19 120.90 300.00 122.11 C 309.81 122.32 319.68 122.22 329.43 123.64 C 333.78 124.29 337.93 126.10 341.23 129.04 C 336.85 130.28 332.29 130.79 327.82 129.76 C 320.89 129.40 313.93 128.23 306.99 129.15 C 294.67 129.63 282.33 129.62 270.01 129.86 C 263.22 130.67 256.35 130.05 249.56 130.78 C 247.08 132.11 245.13 134.20 242.99 136.00 C 233.67 144.01 224.34 152.02 214.88 159.87 C 210.99 163.16 206.39 165.82 203.78 170.36 C 212.57 166.42 220.61 160.52 230.16 158.49 C 233.49 158.08 237.87 157.65 239.94 160.94 C 241.45 164.08 240.59 167.93 238.75 170.77 C 237.17 173.71 234.41 176.09 233.95 179.54 C 242.45 180.45 250.36 176.38 257.78 172.79 C 258.35 169.24 258.40 165.48 260.31 162.32 C 263.59 156.77 268.56 152.48 273.65 148.66 C 276.94 146.31 280.83 144.29 285.00 144.64 C 288.55 144.78 292.63 146.15 294.35 149.52 C 295.04 153.00 295.13 156.99 293.06 160.05 C 291.09 163.40 287.68 165.55 284.34 167.35 C 280.09 169.67 275.00 170.03 271.07 173.00 C 272.37 174.27 273.40 176.13 275.33 176.52 C 281.08 178.06 287.14 178.03 293.06 177.80 C 300.56 177.46 307.35 174.02 314.21 171.36 C 315.02 172.22 317.67 173.32 316.12 174.74 C 311.80 181.04 304.35 183.90 297.27 185.83 C 287.69 188.23 277.45 188.59 267.90 185.86 C 264.59 184.92 261.98 182.57 259.51 180.29 C 250.95 184.51 241.57 187.36 231.98 187.38 C 228.45 186.93 223.74 186.52 222.24 182.68 C 220.66 180.06 222.15 176.99 224.00 174.97 C 226.16 172.68 229.05 170.92 230.16 167.81 C 221.17 171.15 212.84 176.07 204.12 180.06 C 197.13 183.21 190.30 188.23 182.29 187.71 C 179.10 187.48 177.47 183.08 179.77 180.86 C 182.51 177.76 185.77 175.12 188.20 171.73 C 183.36 173.70 178.65 175.97 173.69 177.62 C 170.32 178.57 167.98 181.34 165.01 183.02 C 154.81 189.23 142.25 192.12 130.47 189.72 C 124.27 188.74 120.43 182.02 121.85 176.11 C 123.51 169.32 126.96 162.87 132.07 158.06 C 138.25 152.03 145.11 146.62 150.10 139.47 C 147.12 139.61 144.17 140.51 141.18 140.20 C 138.91 139.41 139.29 136.63 139.66 134.76 C 145.10 129.89 154.09 133.61 159.29 128.30 C 168.05 120.04 177.18 112.19 186.12 104.13 C 190.92 100.16 195.77 96.05 201.45 93.40 Z" />
<path fill="#ffffff" d=" M 180.17 136.69 C 196.57 135.64 212.92 134.11 229.27 132.57 C 221.34 140.24 212.99 147.51 204.17 154.16 C 193.99 161.76 182.16 166.59 170.47 171.35 C 166.68 172.66 164.20 176.13 160.42 177.44 C 154.12 179.95 147.72 182.54 140.95 183.42 C 138.10 183.79 134.41 182.03 134.27 178.84 C 133.51 173.56 137.63 169.45 140.73 165.74 C 148.59 157.25 155.38 147.64 164.60 140.50 C 168.99 136.97 174.88 137.26 180.17 136.69 Z" />
<path fill="#fefefe" d=" M 270.33 165.15 C 272.67 160.00 277.33 155.41 283.25 155.14 C 283.16 156.50 283.23 158.07 282.09 159.05 C 278.99 162.35 274.52 163.81 270.33 165.15 Z" />
<path fill="#000000" d=" M 429.54 260.98 C 429.62 250.69 438.85 241.97 448.97 241.57 C 456.84 241.01 464.78 245.48 468.30 252.56 C 470.11 256.08 470.61 260.09 470.55 264.01 C 470.50 278.47 470.58 292.94 470.51 307.40 C 466.28 307.44 462.04 307.42 457.82 307.42 C 457.52 292.00 457.83 276.58 457.67 261.17 C 457.79 257.10 453.90 253.87 450.05 253.69 C 445.38 253.84 441.58 258.26 442.11 262.92 C 442.07 327.62 442.13 392.32 442.08 457.01 C 442.13 459.79 441.90 462.66 442.76 465.35 C 444.30 468.57 448.11 470.88 451.69 469.90 C 455.30 469.22 458.03 465.61 457.70 461.95 C 457.72 445.25 457.67 428.54 457.73 411.84 C 461.97 411.74 466.22 411.77 470.47 411.81 C 470.57 428.88 470.60 445.96 470.46 463.03 C 470.27 473.27 461.32 482.62 450.98 482.68 C 441.77 483.31 432.73 476.82 430.31 467.93 C 429.26 464.73 429.55 461.32 429.52 458.02 C 429.55 392.34 429.51 326.66 429.54 260.98 Z" />
<path fill="#000000" d=" M 1116.93 247.93 C 1124.54 238.75 1140.82 239.58 1147.69 249.25 C 1150.23 252.94 1151.53 257.47 1151.35 261.95 C 1151.18 277.11 1151.61 292.29 1151.13 307.45 C 1147.04 307.41 1142.96 307.40 1138.88 307.46 C 1138.36 291.97 1138.86 276.46 1138.63 260.97 C 1138.61 258.96 1138.24 256.77 1136.55 255.47 C 1132.63 251.74 1124.25 254.26 1124.33 260.06 C 1124.23 280.70 1124.32 301.35 1124.29 322.00 C 1124.36 329.14 1123.85 336.40 1125.60 343.40 C 1129.26 361.80 1139.23 377.98 1145.63 395.43 C 1149.89 406.77 1152.71 418.78 1152.80 430.94 C 1152.81 439.96 1152.85 448.97 1152.78 457.99 C 1152.63 465.02 1150.78 472.54 1145.58 477.59 C 1140.09 483.16 1131.04 484.04 1124.04 481.11 C 1118.18 478.72 1114.46 473.01 1112.79 467.12 C 1110.83 460.59 1111.60 453.71 1111.46 447.00 C 1111.45 435.81 1111.45 424.62 1111.45 413.43 C 1115.71 413.39 1119.98 413.37 1124.26 413.45 C 1124.37 429.95 1124.22 446.44 1124.32 462.94 C 1124.29 466.28 1127.12 469.26 1130.34 469.87 C 1135.09 471.22 1140.31 466.95 1140.19 462.06 C 1140.23 451.37 1140.22 440.69 1140.19 430.01 C 1139.27 409.66 1130.02 391.12 1122.31 372.68 C 1116.47 359.12 1111.53 344.79 1111.46 329.87 C 1111.45 308.63 1111.45 287.38 1111.46 266.14 C 1111.54 259.76 1112.70 252.95 1116.93 247.93 Z" />
<path fill="#000000" d=" M 126.51 242.77 C 137.57 242.73 148.62 242.75 159.68 242.76 C 159.70 246.87 159.70 250.99 159.68 255.10 C 152.68 255.19 145.68 255.03 138.69 255.20 C 138.71 304.89 138.64 354.57 138.73 404.26 C 145.31 404.32 151.90 404.26 158.48 404.30 C 158.49 408.35 158.51 412.41 158.45 416.47 C 151.89 416.49 145.34 416.46 138.78 416.50 C 138.59 438.11 138.69 459.73 138.73 481.35 C 134.66 481.54 130.59 481.47 126.52 481.44 C 126.46 459.79 126.52 438.14 126.49 416.50 C 124.18 416.48 121.87 416.47 119.56 416.46 C 119.50 412.42 119.53 408.37 119.53 404.33 C 121.84 404.29 124.15 404.28 126.47 404.21 C 126.54 350.40 126.45 296.58 126.51 242.77 Z" />
<path fill="#000000" d=" M 234.94 242.83 C 240.30 242.66 245.67 242.83 251.04 242.69 C 255.17 293.75 258.54 344.89 262.44 395.97 C 264.44 424.46 266.66 452.94 268.62 481.43 C 264.57 481.48 260.51 481.47 256.47 481.45 C 255.04 460.05 253.44 438.67 252.33 417.26 C 248.94 416.43 245.43 416.78 241.99 416.72 C 239.23 416.77 236.36 416.34 233.78 417.54 C 233.07 438.86 231.09 460.13 229.88 481.41 C 225.79 481.50 221.69 481.48 217.60 481.41 C 219.30 459.85 221.10 438.32 222.56 416.75 C 220.45 416.73 218.35 416.72 216.24 416.70 C 216.25 412.57 216.24 408.43 216.26 404.30 C 218.53 404.29 220.79 404.27 223.06 404.26 C 226.97 350.44 231.27 296.66 234.94 242.83 Z" />
<path fill="#000000" d=" M 327.81 242.79 C 335.23 242.77 342.66 242.65 350.09 242.82 C 360.27 243.50 369.05 252.73 368.77 263.01 C 368.81 335.82 368.79 408.63 368.78 481.45 C 364.59 481.47 360.39 481.47 356.20 481.45 C 356.18 408.94 356.19 336.43 356.19 263.93 C 356.51 259.98 353.83 255.76 349.74 255.22 C 346.68 254.98 343.60 255.16 340.53 255.16 C 340.49 330.59 340.59 406.03 340.48 481.47 C 336.25 481.46 332.03 481.49 327.80 481.42 C 327.77 401.88 327.77 322.33 327.81 242.79 Z" />
<path fill="#000000" d=" M 528.42 242.78 C 532.46 242.73 536.50 242.70 540.55 242.83 C 543.44 272.88 545.70 302.99 548.44 333.06 C 549.99 350.42 551.12 367.85 553.12 385.18 C 557.11 337.71 561.16 290.24 565.34 242.79 C 569.48 242.72 573.63 242.74 577.78 242.77 C 572.57 296.53 566.68 350.24 561.27 403.98 C 560.55 411.98 559.11 419.95 559.33 428.01 C 559.34 445.82 559.36 463.63 559.32 481.44 C 555.24 481.48 551.16 481.47 547.09 481.45 C 546.96 461.69 547.30 441.93 546.91 422.18 C 540.86 362.37 534.56 302.59 528.42 242.78 Z" />
<path fill="#000000" d=" M 702.10 242.76 C 709.71 242.81 717.33 242.60 724.94 242.84 C 734.96 243.68 743.18 252.88 743.00 262.91 C 743.20 304.27 743.03 345.64 743.09 387.00 C 742.98 393.20 743.74 399.86 740.71 405.54 C 737.61 411.80 730.96 415.97 724.03 416.39 C 720.95 416.57 717.86 416.46 714.78 416.48 C 714.58 438.09 714.66 459.70 714.74 481.31 C 710.52 481.58 706.30 481.44 702.09 481.45 C 702.05 459.81 702.14 438.16 702.04 416.52 C 699.85 416.49 697.67 416.47 695.49 416.46 C 695.44 412.41 695.45 408.36 695.47 404.31 C 697.59 404.29 699.71 404.27 701.84 404.27 C 702.38 386.53 701.93 368.76 702.08 351.00 C 702.09 314.92 702.06 278.84 702.10 242.76 Z" />
<path fill="#000000" d=" M 820.56 242.81 C 825.88 242.71 831.21 242.71 836.54 242.81 C 842.38 317.84 847.53 392.93 853.19 467.98 C 853.54 472.46 853.77 476.95 853.84 481.45 C 849.81 481.47 845.79 481.49 841.77 481.40 C 840.58 459.84 839.11 438.29 837.52 416.75 C 831.53 416.73 825.55 416.67 819.57 416.80 C 818.24 438.35 816.78 459.89 815.34 481.44 C 811.28 481.47 807.23 481.47 803.18 481.45 C 804.47 459.87 806.91 438.36 807.81 416.75 C 805.75 416.73 803.69 416.71 801.65 416.69 C 801.61 412.57 801.62 408.45 801.64 404.34 C 803.90 404.30 806.18 404.27 808.46 404.23 C 812.63 350.44 816.51 296.62 820.56 242.81 Z" />
<path fill="#000000" d=" M 913.45 242.77 C 920.66 242.76 927.87 242.68 935.08 242.79 C 945.45 243.25 954.47 252.50 954.31 262.94 C 954.27 335.76 954.33 408.59 954.28 481.41 C 950.06 481.49 945.84 481.49 941.63 481.41 C 941.60 408.92 941.62 336.42 941.62 263.93 C 942.01 259.95 939.23 255.40 934.96 255.21 C 931.93 255.00 928.90 255.14 925.87 255.15 C 925.85 330.58 925.87 406.02 925.86 481.45 C 921.74 481.46 917.62 481.46 913.50 481.47 C 913.36 401.91 913.47 322.34 913.45 242.77 Z" />
<path fill="#000000" d=" M 1012.64 242.77 C 1026.17 242.73 1039.71 242.74 1053.24 242.77 C 1053.28 246.88 1053.28 250.99 1053.24 255.10 C 1048.43 255.16 1043.62 255.07 1038.82 255.19 C 1038.80 330.61 1038.83 406.03 1038.81 481.45 C 1034.70 481.47 1030.61 481.43 1026.51 481.51 C 1026.22 406.06 1026.48 330.60 1026.39 255.15 C 1021.80 255.11 1017.22 255.14 1012.64 255.10 C 1012.60 250.99 1012.60 246.88 1012.64 242.77 Z" />
<path fill="#ffffff" d=" M 714.67 255.19 C 718.05 255.16 721.46 254.91 724.84 255.30 C 728.39 255.83 730.83 259.51 730.67 262.97 C 730.69 307.29 730.69 351.62 730.67 395.94 C 730.79 399.22 728.64 402.41 725.57 403.55 C 722.10 404.86 718.32 404.12 714.71 404.25 C 714.62 354.56 714.70 304.88 714.67 255.19 Z" />
<path fill="#ffffff" d=" M 239.56 332.93 C 240.78 314.57 242.23 296.21 243.02 277.83 C 244.76 292.04 244.97 306.38 246.15 320.65 C 247.89 348.53 249.60 376.38 251.38 404.26 C 246.00 404.31 240.62 404.28 235.25 404.28 C 235.98 380.46 238.39 356.72 239.56 332.93 Z" />
<path fill="#ffffff" d=" M 828.68 278.60 C 830.07 289.69 830.09 300.92 831.11 312.06 C 832.43 335.03 833.93 358.00 835.43 380.97 C 835.62 388.75 836.77 396.48 836.62 404.28 C 831.24 404.29 825.86 404.30 820.49 404.27 C 823.02 362.37 825.97 320.49 828.68 278.60 Z" />
<path fill="#000000" d=" M 1081.79 487.81 C 1085.30 485.45 1089.22 483.27 1093.59 483.32 C 1093.56 485.11 1093.84 487.10 1092.68 488.63 C 1089.95 492.85 1085.66 495.67 1082.06 499.07 C 1073.88 506.82 1065.91 514.78 1058.07 522.87 C 1070.76 522.20 1083.34 520.16 1095.99 519.05 C 1122.92 516.56 1149.93 514.16 1177.00 514.47 C 1190.79 514.37 1204.60 514.64 1218.35 515.83 C 1223.49 516.34 1228.71 517.77 1232.85 520.99 C 1232.80 521.29 1232.69 521.91 1232.64 522.21 C 1228.74 523.34 1224.64 523.64 1220.67 522.76 C 1214.77 522.41 1208.90 521.55 1202.99 521.69 C 1176.35 523.22 1149.59 522.17 1123.02 524.95 C 1101.09 527.20 1079.13 528.96 1057.16 530.67 C 1050.37 531.24 1045.56 536.52 1041.00 540.99 C 1034.84 547.21 1029.60 554.25 1023.59 560.60 C 1020.84 563.73 1018.02 567.09 1016.93 571.20 C 1015.78 574.60 1018.57 578.54 1022.11 578.77 C 1026.11 579.11 1029.98 577.75 1033.76 576.61 C 1039.97 574.53 1046.23 572.34 1051.77 568.77 C 1054.09 567.22 1056.73 566.07 1059.59 566.48 C 1060.75 570.26 1057.23 572.63 1054.67 574.65 C 1044.23 583.09 1030.51 587.35 1017.13 586.31 C 1013.49 585.75 1009.49 584.93 1006.88 582.12 C 1004.63 579.75 1004.17 576.39 1003.49 573.35 C 993.49 577.94 983.21 582.89 972.00 583.22 C 967.78 583.10 963.15 583.01 959.65 580.32 C 955.55 577.72 955.08 571.49 957.74 567.71 C 961.09 562.81 966.57 560.20 971.73 557.64 C 974.54 555.85 978.34 553.37 977.60 549.51 C 975.48 549.24 973.03 548.69 971.28 550.29 C 964.60 555.20 959.33 561.76 952.66 566.69 C 950.57 568.04 949.75 570.48 948.21 572.31 C 942.63 574.70 935.89 574.47 930.59 571.43 C 927.22 570.03 923.16 566.98 919.66 569.63 C 910.09 575.89 899.86 582.99 887.94 582.87 C 883.37 583.31 879.74 580.05 876.67 577.15 C 868.25 583.61 857.19 584.58 846.95 584.40 C 843.29 584.39 839.32 582.91 837.67 579.42 C 836.92 576.84 836.93 573.79 838.60 571.56 C 841.95 566.70 845.56 561.92 850.09 558.08 C 851.34 557.05 852.47 555.88 853.22 554.43 C 849.79 554.08 846.52 555.23 843.38 556.43 C 829.22 561.84 815.28 568.11 802.77 576.75 C 789.08 586.16 776.03 596.54 764.06 608.08 C 756.75 615.10 749.45 622.14 741.75 628.75 C 735.03 634.51 727.33 638.92 720.28 644.24 C 718.16 646.07 715.16 645.97 712.57 645.54 C 710.38 644.49 710.17 641.50 711.59 639.69 C 714.85 635.54 719.71 633.09 723.52 629.51 C 734.48 619.79 745.24 609.85 756.60 600.61 C 775.57 585.16 793.96 568.97 811.17 551.58 C 798.31 556.73 787.36 565.33 776.06 573.14 C 773.63 575.01 770.59 575.66 767.87 576.93 C 755.32 583.29 740.49 585.04 726.80 581.88 C 722.25 580.90 718.31 578.02 715.86 574.09 C 704.64 578.86 692.85 584.71 680.29 582.87 C 675.36 582.63 670.12 579.20 669.61 573.98 C 669.16 569.07 673.09 565.34 676.61 562.55 C 681.61 558.70 689.30 557.57 691.72 551.01 C 690.84 548.60 687.67 548.81 685.78 549.75 C 680.04 553.56 675.51 558.83 670.44 563.43 C 665.58 567.65 660.21 571.36 654.23 573.80 C 653.58 572.10 652.97 570.40 652.36 568.71 C 656.78 565.74 661.26 562.82 665.11 559.12 C 672.23 552.92 677.88 544.81 686.44 540.42 C 690.99 538.51 696.05 537.84 700.97 538.21 C 703.59 538.32 706.34 540.14 706.43 542.98 C 707.23 548.27 704.20 553.07 700.92 556.91 C 697.83 560.55 693.25 562.59 690.47 566.52 C 689.98 567.89 690.27 569.37 690.27 570.80 C 694.25 572.50 698.57 571.13 702.59 570.35 C 706.47 569.41 710.44 568.66 714.13 567.11 C 715.38 565.91 714.97 563.83 715.48 562.27 C 716.44 555.57 721.82 550.87 726.46 546.45 C 731.07 542.37 736.49 538.01 743.02 538.34 C 747.00 538.42 751.84 539.94 753.25 544.11 C 754.28 548.31 753.27 553.03 750.34 556.27 C 746.87 560.00 742.30 562.62 737.46 564.15 C 734.41 565.12 731.14 565.82 728.71 568.05 C 729.79 570.05 731.68 571.39 733.89 571.93 C 744.61 574.19 756.22 573.89 766.32 569.29 C 768.83 567.49 771.20 565.42 774.12 564.28 C 782.55 560.50 788.99 553.69 796.61 548.66 C 807.50 541.18 820.14 536.09 829.44 526.45 C 832.25 523.82 834.70 520.60 838.25 518.93 C 840.13 517.94 842.50 518.75 843.72 520.42 C 844.73 526.49 840.30 531.41 836.75 535.74 C 828.31 546.22 815.97 552.62 807.77 563.35 C 824.43 556.83 840.07 546.98 858.10 544.59 C 861.12 544.07 864.80 545.07 865.95 548.22 C 866.90 551.32 865.79 554.66 864.52 557.53 C 861.98 563.39 856.02 566.67 853.09 572.29 C 859.72 575.18 867.50 572.69 873.29 568.89 C 872.73 563.08 877.04 558.57 881.26 555.25 C 887.31 550.32 893.88 544.79 901.97 544.13 C 908.55 542.64 911.84 554.64 905.08 556.26 C 898.30 557.76 890.60 559.36 886.44 565.52 C 885.35 568.71 888.27 571.52 891.05 572.45 C 894.84 573.35 898.06 570.93 901.21 569.24 C 905.87 566.62 911.21 564.98 915.13 561.20 C 917.38 559.29 917.06 556.00 916.65 553.40 C 915.64 551.11 913.26 549.84 911.97 547.75 C 910.80 544.68 912.30 540.77 915.52 539.71 C 919.72 538.48 924.78 537.73 928.55 540.52 C 931.01 542.26 931.85 545.34 932.30 548.17 C 932.74 551.64 930.32 555.03 931.54 558.46 C 934.41 562.44 939.56 565.19 944.52 564.54 C 953.84 558.78 960.07 549.33 968.78 542.81 C 973.95 538.95 980.63 537.82 986.95 538.16 C 989.68 538.23 992.77 540.06 992.65 543.12 C 993.58 550.19 988.52 556.21 983.44 560.43 C 980.24 563.03 975.26 565.66 976.35 570.57 C 978.98 572.00 982.01 571.73 984.86 571.19 C 991.32 569.92 997.78 568.42 1003.85 565.82 C 1004.88 565.33 1006.19 564.96 1006.64 563.76 C 1012.33 550.96 1025.87 544.59 1033.45 533.15 C 1030.04 533.24 1026.65 533.69 1023.24 533.59 C 1022.52 531.52 1021.49 528.33 1023.88 526.97 C 1029.12 524.08 1035.66 525.36 1041.06 523.01 C 1046.67 518.33 1051.76 513.05 1057.38 508.37 C 1065.38 501.36 1072.95 493.80 1081.79 487.81 Z" />
<path fill="#fdfdfd" d=" M 727.89 559.70 C 730.22 554.48 734.98 549.72 740.93 549.35 C 742.36 551.17 740.46 552.98 739.30 554.34 C 736.05 557.08 731.91 558.51 727.89 559.70 Z" />
</svg>
